<?xml version="1.0" encoding="UTF-8"?>
<svg id="_エッグドラゴン" data-name="エッグドラゴン" xmlns="http://www.w3.org/2000/svg" xmlns:xlink="http://www.w3.org/1999/xlink" viewBox="0 0 600 600">
  <defs>
    <clipPath id="clippath">
      <circle cx="300" cy="300" r="300" style="fill: none; stroke: #fff; stroke-miterlimit: 10;"/>
    </clipPath>
    <clipPath id="clippath-1">
      <path d="M391.2,169c-12.1,1.9-62.7,11.7-93.1,44.1-2.3,2.5-3.6,5.7-3.5,9.1,.7,37.7,39.9,36.2,50.6,32.4,11.1-3.9,37.6-19.7,48.2-83.4,.2-1.3-.9-2.4-2.2-2.2Z" style="fill: #fff; stroke: #000; stroke-linejoin: round; stroke-width: 5px;"/>
    </clipPath>
  </defs>
  <g style="clip-path: url(#clippath);">
    <g id="_010" data-name="010">
      <rect id="_背景" data-name="背景" x="-81" y="-5.4" width="857.4" height="857.4" style="fill: #ff45f2;"/>
      <g id="EggDragon">
        <path id="_たまご_後_" data-name="たまご（後）" d="M213.2,423.3c-10.6,26.2-18.3,54.8-22.9,84.7-19.3,124.8,70.4,222.6,197.2,222.7,124.1,.1,213.2-98.1,197.2-222.7-3.4-26.7-9.6-52.3-18.2-76.2l-44.9,15.1-24-18-15.4,4.3-16.3-9.9-48,10.7-37.7-18-46.3,17.1-19.7-12-27.4,13.7-11-11.6-27.6,19.3-34.9-19.3Z" style="fill: #3b00ff; stroke: #000; stroke-linejoin: round; stroke-width: 5px;"/>
        <g id="_右羽" data-name="右羽">
          <path id="_右羽-2" data-name="右羽" d="M645.6,533.2c69.1-98,57-173.8,46.5-235.7-10.5-61.9-61.6-108.7-61.6-108.7-43.8,17.9-166.5,160.8-179.5,174.3l20.3,56.1c189.7-91.4,253.6-59,174.2,114Z" style="fill: #999; stroke: #000; stroke-linejoin: round; stroke-width: 5px;"/>
          <g id="_右羽_模様_" data-name="右羽（模様）">
            <path d="M645.6,533.2c106.6-147.8-24.5-289.3-29.6-305.9l-144.7,191.8s86.4-30.8,130.7-1.1c48.8-4.9,85.7-2.8,43.6,115.1Z" style="fill: #fff; stroke: #000; stroke-linejoin: round; stroke-width: 5px;"/>
            <path d="M602,418.1c35.7-84.4,14-190.8,14-190.8" style="fill: none; stroke: #000; stroke-linejoin: round; stroke-width: 5px;"/>
          </g>
        </g>
        <g id="_左羽" data-name="左羽">
          <path id="_左羽-2" data-name="左羽" d="M409.8,403.6l32.9-61.8-152.8-169.2S49.5,244.3,64.1,409.3c0,0,111.5-226.2,345.7-5.8Z" style="fill: #999; stroke: #000; stroke-linejoin: round; stroke-width: 5px;"/>
          <g id="_左羽_模様_" data-name="左羽（模様）">
            <path d="M247.8,429.2s70.1-81.4,162-25.6l-126.3-190.7c-130.1,30.7-211.7,127.2-219.4,196.4,0,0,36.5-32.3,83.2-7.8,0,0,77,0,100.4,27.6Z" style="fill: #fff; stroke: #000; stroke-linejoin: round; stroke-width: 5px;"/>
            <path d="M283.5,212.9c-1.5,.4,1.5-.4,0,0l-35.7,216.3-3.2-3.3c1.1,1,2.2,2.1,3.2,3.3,0,0,2.6-3.1,7.6-7.6l33.7-200.3-5.6-8.4Z" style="opacity: .2;"/>
            <path d="M288.4,220.3l-4.9-7.4c-3.8,.9,3.7-1,0,0-52.5,53.3-97.2,117.2-136.1,188.7,2.8,1.1-2.9-1.5,0,0,0,0,3,0,8,.2,65.9-115.2,113.9-164.5,133.1-181.5Z" style="opacity: .2;"/>
            <path d="M286.9,218l-.7-1-11.6-1.9c-124.9,32.9-203,126.5-210.5,194.2,0,0,1.1-.9,3.1-2.4,61-156.2,198.1-185.2,219.7-188.9Z" style="opacity: .2;"/>
            <path d="M283.5,212.9s-102.3,108.9-136.1,188.7" style="fill: none; stroke: #000; stroke-linejoin: round; stroke-width: 5px;"/>
            <line x1="247.8" y1="429.2" x2="283.5" y2="212.9" style="fill: none; stroke: #000; stroke-linejoin: round; stroke-width: 5px;"/>
          </g>
        </g>
        <g id="_足_左_" data-name="足（左）">
          <path d="M243.5,525.1c-28.6-14.1-26.3,33.5-26.3,33.5l9.9,29.7s33.8,19.4,28.2,61.3c-5.4,40.2,47.1,30.1,51.5,23.2,7.7-2.4,54.7-97.3,.7-147.7-16.4-13.3-25.4-7.7-30.2,1h0c-18.6-11.5-28.5-8.2-33.8-1.1,0,0,4.1,3,4.5,12.8" style="fill: #010102; stroke: #000; stroke-linejoin: round; stroke-width: 5px;"/>
          <path d="M354.4,496.3c-105.7-56.6-111.5,100.7-93.7,117.9l64,13.7s38-3.7,56.7-39.9" style="fill: #010102; stroke: #000; stroke-linejoin: round; stroke-width: 5px;"/>
        </g>
        <path id="_手_左_" data-name="手（左）" d="M253.7,450.4s108.6,55.1,99.4-10.8c-.6-4.2-6.1-6.4-10.1-3.9l-12.4,7.8c-2.1,1.3-4.9,1.4-7.1,.2l-40.2-21.5c-2.2-1.2-4.9-1.1-7,.2l-22.6,13.6c-.5,.3-1,.7-1.4,1.2-1.7,1.9-5.3,7.3,1.4,13.3" style="fill: #999; stroke: #000; stroke-linejoin: round; stroke-width: 5px;"/>
        <g id="_胴体" data-name="胴体">
          <path id="_胴体-2" data-name="胴体" d="M337.6,362.1c30.3,45.5,3.4,98-35.3,141.4-25.9,28.9-17.1,88.9-38.8,94.6-23.4,12.4-90.8-49.3-153.9-33.1-37.6,0-90.1,63.8-49,109.4,73,53.6,71.8,34.2,118.6,79.8,12.9-51.2-130.8-82.4-69.5-104.9,36.6-13.4,136.9,58.8,181.3,65,0,0,209.8,59.3,242.8-165.3,33.1-224.6-131.1-308.9-131.1-308.9l-65,122Z" style="fill: #999; stroke: #000; stroke-linejoin: round; stroke-width: 5px;"/>
          <path d="M490.8,325s0,0,0,0c-.1-.2-.2-.3-.3-.5-.2-.4-.5-.7-.7-1.1-.4-.6-.8-1.2-1.2-1.7-2-2.9-4-5.8-6-8.5,.8-2.4,1.4-4.8,1.8-7.2-10.3-16-21.1-29.4-31-40.1-15.2-4.5-34.4-4.2-53.8,1.8-3.9,1.2-7.6,2.6-11.2,4.1l-43.8,63.9c8.6,24.2,45.5,34.3,83.3,22.7,13.7-4.2,25.7-10.8,35.1-18.5,3.6,6.9,6.8,13.4,8.4,18,3.6,10.1,2.6-14.4,12.9-27.3,21,43.6,45.1,109,33.1,160.8-7.7,33.4,3.4,35.1,19.8,24.9,5.7-84.8-17.6-147.3-46.4-191.1Z" style="opacity: .2;"/>
          <g id="_胴体_模様_" data-name="胴体（模様）">
            <path d="M337.6,362.1c30.3,45.5,3.4,98-35.3,141.4-25.9,28.9-17.1,88.9-38.8,94.6-23.4,12.4-90.8-49.3-153.9-33.1-37.6,0-90.1,63.8-49,109.4,73,53.6,71.8,34.2,118.6,79.8,0,0-9.4-19.3-33.4-33.9-24-14.6-67.4-47.9-74.6-54.9-23.1-22.3,0-72,38.6-78,8.6-.9,42-11.1,104.6,31.7,99.8,72.7,199.8,13.7,214.3-113.2,19.7-156.9-85.7-174.9-85.7-174.9l-5.4,31Z" style="fill: #fff; stroke: #000; stroke-linejoin: round; stroke-width: 5px;"/>
            <path d="M358.1,335.9l-19.6,21-.9,5.2c2.1,3.2,4,6.4,5.6,9.7,14.4-.8,35-2.6,55.4-6.3-13.9-16.1-29.3-24.9-40.5-29.6Z" style="opacity: .2;"/>
            <path d="M350.9,396.5s32.6,21.6,63.2-8.8" style="fill: #fff; stroke: #000; stroke-linejoin: round; stroke-width: 5px;"/>
            <path d="M346.3,435.2s22.2,26.3,85,27.1" style="fill: #fff; stroke: #000; stroke-linejoin: round; stroke-width: 5px;"/>
            <path d="M317.9,486.1s46.3,52.2,106.4,46.5" style="fill: #fff; stroke: #000; stroke-linejoin: round; stroke-width: 5px;"/>
            <path d="M285.7,538.6s46.2,61.1,111.3,58.4" style="fill: #fff; stroke: #000; stroke-linejoin: round; stroke-width: 5px;"/>
            <path d="M270.4,593.4s23.5,43,72.9,48.9" style="fill: #fff; stroke: #000; stroke-linejoin: round; stroke-width: 5px;"/>
            <path d="M220.8,588.6s-10.4,17.5,19,46.3" style="fill: #fff; stroke: #000; stroke-linejoin: round; stroke-width: 5px;"/>
            <path d="M181.3,572.1s-9.9,8.2-3,26.3" style="fill: #fff; stroke: #000; stroke-linejoin: round; stroke-width: 5px;"/>
            <path d="M131.6,562.2s-16,10.7-3,23.5" style="fill: #fff; stroke: #000; stroke-linejoin: round; stroke-width: 5px;"/>
            <path d="M72.3,582s-7.4,9.8,9.9,18.7" style="fill: #fff; stroke: #000; stroke-linejoin: round; stroke-width: 5px;"/>
          </g>
        </g>
        <path id="_腕_右_" data-name="腕（右）" d="M511.3,436.3c7.5,87.1-36.9,64.3-36.9,64.3-30-11.7-17-48.7-17-48.7-5.4-28.9,7.7-39.2,7.7-39.2" style="fill: #999; stroke: #000; stroke-linejoin: round; stroke-width: 5px;"/>
        <g id="_顔" data-name="顔">
          <g id="_つの" data-name="つの">
            <path d="M413.5,132.8c9-15.2,2.3-67.2-5.7-51.9-8,15.3-30.5,28.8-31.9,30.6l37.6,21.3Z" style="fill: #fbc63b; stroke: #000; stroke-miterlimit: 10; stroke-width: 5px;"/>
            <path d="M385.9,104s18.7,.3,30.8,18.5" style="fill: #fbc63b; stroke: #000; stroke-miterlimit: 10; stroke-width: 5px;"/>
            <path d="M396.8,94.8s15.5,2,20.9,8.5" style="fill: #fbc63b; stroke: #000; stroke-miterlimit: 10; stroke-width: 5px;"/>
            <path d="M462.7,216.3c20.2-7.8,48.3-73.4,28.9-64.6-19.4,8.7-46.4,14.8-49,15.5l20.1,49.2Z" style="fill: #fbc63b; stroke: #000; stroke-miterlimit: 10; stroke-width: 5px;"/>
            <path d="M459.6,163.2s16.9,16.7,14.7,43.5" style="fill: #fbc63b; stroke: #000; stroke-miterlimit: 10; stroke-width: 5px;"/>
            <path d="M474.8,158.2c3.5-.9,17.2,16.8,12.8,28.3" style="fill: #fbc63b; stroke: #000; stroke-miterlimit: 10; stroke-width: 5px;"/>
          </g>
          <path id="_口_上_" data-name="口（上）" d="M278.5,310.9s42.6-11.8,80.8,1.9c-91.1-65-166.8-21.4-166.8-21.4,0,0,32.1-20,86,19.5Z" style="stroke: #000; stroke-linejoin: round; stroke-width: 5px;"/>
          <path id="_歯_上_" data-name="歯（上）" d="M229.6,292.6c1.1,1.9,4,1.7,4.8-.4l5.1-16.4c.3-.9-.1-1.9-1-2.2-9.5-4.4-11.4-1.8-15.8,3.1-.5,.5-.6,1.3-.3,2l7.1,14Z" style="fill: #fff; stroke: #000; stroke-linejoin: round; stroke-width: 5px;"/>
          <path id="_口_下_" data-name="口（下）" d="M278.5,310.9s42.6-11.8,80.8,1.9c0,0-38.5,68-89.4,72.8-38.2-13.8,8.6-74.8,8.6-74.8Z" style="stroke: #000; stroke-linejoin: round; stroke-width: 5px;"/>
          <path id="_舌" data-name="舌" d="M293,309.4s36.4-6.5,69.6,4.4c0,0-43.4,64.3-89.1,72.1-33.2-10.9,19.5-76.5,19.5-76.5Z" style="fill: #ff7bac; stroke: #000; stroke-linejoin: round; stroke-width: 5px;"/>
          <path id="_歯_下手前_" data-name="歯（下手前）" d="M297.6,362.4c-2.1-.8-4.2,1.2-3.5,3.3l6.3,16c.3,.9,1.3,1.3,2.2,1.1,10.2-2.6,10-5.8,10.3-12.4s-.4-1.4-1-1.7l-14.3-6.4Z" style="fill: #fff; stroke: #000; stroke-linejoin: round; stroke-width: 5px;"/>
          <path id="_顔輪郭" data-name="顔輪郭" d="M269.9,385.7c38.2,13.8,85.5-25.9,85.5-25.9,0,0,78.6,5.3,104.3-44,31.3-65.3,.2-101.7,.2-101.7,8.2-54-118.7-196.4-240.2-43.1-51.3-6.6-98.3,58.8-27.1,120.4,0,0,75.7-43.6,166.8,21.4,0,0-38.5,68-89.4,72.8" style="fill: #999; stroke: #000; stroke-linejoin: round; stroke-width: 5px;"/>
          <g id="_目" data-name="目">
            <g>
              <path d="M391.2,169c-12.1,1.9-62.7,11.7-93.1,44.1-2.3,2.5-3.6,5.7-3.5,9.1,.7,37.7,39.9,36.2,50.6,32.4,11.1-3.9,37.6-19.7,48.2-83.4,.2-1.3-.9-2.4-2.2-2.2Z" style="fill: #fff;"/>
              <g style="clip-path: url(#clippath-1);">
                <circle cx="312.4" cy="213.4" r="57.6" style="fill: #ff2900; stroke: #000; stroke-linejoin: round; stroke-width: 5px;"/>
              </g>
              <path d="M391.2,169c-12.1,1.9-62.7,11.7-93.1,44.1-2.3,2.5-3.6,5.7-3.5,9.1,.7,37.7,39.9,36.2,50.6,32.4,11.1-3.9,37.6-19.7,48.2-83.4,.2-1.3-.9-2.4-2.2-2.2Z" style="fill: none; stroke: #000; stroke-linejoin: round; stroke-width: 5px;"/>
            </g>
            <ellipse cx="319.9" cy="220.4" rx="19.2" ry="9.6" transform="translate(65.8 514.2) rotate(-83.7)" style="stroke: #000; stroke-miterlimit: 10; stroke-width: 5px;"/>
            <circle cx="317.9" cy="211.2" r="2.9" style="fill: #fff; stroke: #fff; stroke-miterlimit: 10; stroke-width: 5px;"/>
          </g>
          <g id="_耳" data-name="耳">
            <path d="M442.3,220.5s58.7-30.4,104-23.1c0,0-32.7,21.6-20.3,53.7,0,0-45,24.8-25.2,62.1,0,0-28.9-2.6-30,28,0,0-7.4-24.3-17.6-32.7,0,0,42-63.4-10.8-88Z" style="fill: #0097ff; stroke: #000; stroke-linejoin: round; stroke-width: 5px;"/>
            <path d="M442.3,220.5c2.6,1.2,4.9,2.5,7,3.9,19.9-8,60.9-22.7,91.1-22.2,3.3-3.1,5.8-4.7,5.8-4.7-45.3-7.4-104,23.1-104,23.1Z" style="opacity: .2;"/>
            <path d="M464.6,284.4c-.9,2.7-.1,2.7-1.1,5.1,7.1,3,23.8,12.1,31.4,23.8,5.3-1.3,5.9,0,5.9,0-.5-1-1-1.9-1.4-2.9-9.4-17.2-34.8-26-34.8-26Z" style="opacity: .2;"/>
            <path d="M466.2,244.4h0c.7,1.8,1.2,3.7,1.7,5.5,8.1-2.3,26.2-5,50.6,6.3,4.3-3.3,7.5-5.1,7.5-5.1-36.2-18.8-59.8-6.8-59.8-6.8Z" style="opacity: .2;"/>
            <path d="M453.1,308.5c1.9,1.6,3.7,3.7,5.4,6,9.9-12.2,19.7-30.4,19.1-49.5-.7-19.7-12.6-37.8-24.5-49.5-6.7,2.9-10.8,5-10.8,5,52.8,24.6,10.8,88,10.8,88Z" style="opacity: .2;"/>
            <path d="M466.2,244.4s23.6-12,59.8,6.8" style="fill: none; stroke: #000; stroke-linejoin: round; stroke-width: 5px;"/>
            <path d="M464.6,284.4s28.2,9.7,36.2,28.8" style="fill: none; stroke: #000; stroke-linejoin: round; stroke-width: 5px;"/>
          </g>
          <path id="_鼻" data-name="鼻" d="M204.3,233.7c-12.9-1.5-17,5.9-17,5.9,0,0,2.1-7.1,11.3-13.1,9.1-6,5.7,7.2,5.7,7.2Z" style="stroke: #000; stroke-linejoin: round; stroke-width: 5px;"/>
          <path id="_歯_下奥_" data-name="歯（下奥）" d="M248.4,344c-2.2,0-3.5,2.6-2,4.4l11.7,12.6c.6,.7,2.4,1.2,2.4,.3,.5-7.6,2.1-10,5.1-15.2,.4-.6-.9-1.2-1.6-1.2l-15.6-.8Z" style="fill: #fff; stroke: #000; stroke-linejoin: round; stroke-width: 5px;"/>
        </g>
        <g id="_足_右_" data-name="足（右）">
          <path d="M458.2,600.2c-34.8-96-106.6-48.5-106.6-48.5l-7.2,121.1s29.6,24.1,68.4,11.5" style="fill: #010102; stroke: #000; stroke-linejoin: round; stroke-width: 5px;"/>
          <path d="M342.1,550.3c8.8-1.4,18.1,3.2,23.2,24.5h0c9.6-2.8,19.9-.5,22.2,20.5,2.9,73.8-97.3,108.1-104.5,104.4-8,1.7-52.4-28-20.2-52.8,33.5-25.8,28.7-69.9,28.7-69.9l4.6-27.9s35.7-29,46.1,1.2" style="fill: #010102; stroke: #000; stroke-linejoin: round; stroke-width: 5px;"/>
          <path d="M345.4,586.2s10.7-8.7,19.9-11.4" style="fill: none; stroke: #000; stroke-linejoin: round; stroke-width: 5px;"/>
          <path d="M321.3,563s9.9-10.9,20.8-12.7" style="fill: none; stroke: #000; stroke-linejoin: round; stroke-width: 5px;"/>
          <path d="M328.6,610.8c-2.1,3.5,.8,7.8,4.8,7.2l30.4-6.2c1.6-.3,2.8-1.9,2.7-3.5-1.3-18.9-7.2-19.6-18.7-22.2s-2.6,.2-3.3,1.3l-15.9,23.4Z" style="fill: #fff; stroke: #000; stroke-linejoin: round; stroke-width: 5px;"/>
          <path d="M305.8,588.8c-1.7,3.5,1.4,7.5,5.2,6.6l29-8.3c1.6-.5,2.6-2,2.3-3.6-2.7-18.2-8.5-18.4-19.8-20-1.2-.2-2.5,.4-3.1,1.5l-13.6,23.9Z" style="fill: #fff; stroke: #000; stroke-linejoin: round; stroke-width: 5px;"/>
          <path d="M282.3,572.8c-1.4,3,1.4,6.4,4.6,5.5l24.5-7.8c1.3-.4,2.1-1.8,1.9-3.1-2.7-15.5-7.7-15.5-17.4-16.6-1.1-.1-2.1,.4-2.6,1.4l-11,20.7Z" style="fill: #fff; stroke: #000; stroke-linejoin: round; stroke-width: 5px;"/>
        </g>
        <g id="_たまご_前面_" data-name="たまご（前面）">
          <path id="_たまご_前_" data-name="たまご（前）" d="M536.2,469.1l-43.2-20.6-22.4,15.7-61.6,5.5-27.9,16.4-27.6-22.9-26.4,8.4-22.3-25.7-30.9,12.9-8.6-6-24.6,10.5-27.4-40.1c-10.6,26.2-18.3,54.8-22.9,84.7-19.3,124.8,70.4,222.6,197.2,222.7,124.1,.1,213.2-98.1,197.2-222.7-3.4-26.7-9.6-52.3-18.2-76.2l-30.3,37.4Z" style="fill: #00735b; stroke: #000; stroke-linejoin: round; stroke-width: 5px;"/>
          <path d="M553.6,447.6c2,60.3-7.9,216.4-156,282.8,118.8-5,202.7-101.2,187.1-222.5-3.4-26.7-9.6-52.3-18.2-76.2l-12.8,15.8Z" style="opacity: .2;"/>
          <g id="_たまご_模様_" data-name="たまご（模様）">
            <ellipse cx="376" cy="559.2" rx="15.5" ry="18.4" transform="translate(-258 331) rotate(-36.3)" style="fill: #fff;"/>
            <ellipse cx="467.5" cy="547.1" rx="27.7" ry="32.9" transform="translate(-238.9 409.5) rotate(-38.5)" style="fill: #fff;"/>
            <ellipse cx="424" cy="606.6" rx="9.5" ry="11.3" transform="translate(-230.2 952.6) rotate(-82.9)" style="fill: #fff;"/>
            <ellipse cx="214.7" cy="559.1" rx="17" ry="20.2" transform="translate(-221.5 148.7) rotate(-25.7)" style="fill: #fff;"/>
            <ellipse cx="310.9" cy="597.3" rx="17" ry="20.2" transform="translate(-212.5 173.6) rotate(-23.5)" style="fill: #fff;"/>
            <ellipse cx="551.9" cy="572.5" rx="9.5" ry="11.3" style="fill: #fff;"/>
            <ellipse cx="263.3" cy="491.3" rx="5.6" ry="4.7" transform="translate(-293.8 473.6) rotate(-60)" style="fill: #fff;"/>
            <ellipse cx="497.4" cy="479.5" rx="5.6" ry="4.7" transform="translate(-166.5 670.5) rotate(-60)" style="fill: #fff;"/>
          </g>
          <g id="_たまご_ひび割れ_" data-name="たまご（ひび割れ）">
            <polyline points="567 548.3 559.9 539.9 563.4 510.2 551.3 495.3 546.1 479.8 536.7 467.8" style="fill: none; stroke: #000; stroke-linejoin: round; stroke-width: 5px;"/>
            <polyline points="535 536.4 535 522.9 549.6 511.6 552.1 496.1" style="fill: none; stroke: #000; stroke-linejoin: round; stroke-width: 5px;"/>
            <polyline points="239.5 547.2 232.3 531.7 232.5 518.9 219.1 503.4 223.1 486.3 236.4 481.1 240.5 463.3" style="fill: none; stroke: #000; stroke-linejoin: round; stroke-width: 5px;"/>
            <polyline points="204.4 521.4 206.4 509.4 219.1 503.4" style="fill: none; stroke: #000; stroke-linejoin: round; stroke-width: 5px;"/>
            <polyline points="353.4 463.3 336.1 491.4 347.7 505.2 330.2 521.4 311.2 529.1" style="fill: none; stroke: #000; stroke-linejoin: round; stroke-width: 5px;"/>
            <polyline points="350.9 547.2 334.4 538.6 330.2 521.4" style="fill: none; stroke: #000; stroke-linejoin: round; stroke-width: 5px;"/>
          </g>
        </g>
        <g id="_指_右_" data-name="指（右）">
          <path d="M467.3,477.7c0-.9,2.6-14.6,6-18.9,0-.1,0-.2,0-.3-2.6-10.7-17.3-12.1-21.9-2-4.5,9.9-2.1,23-2.1,23,0,0,7.7-12.9,18-1.7Z" style="fill: #999; stroke: #000; stroke-linejoin: round; stroke-width: 5px;"/>
          <path d="M433.5,449.3c-6.6-5.8-17.7-4-22.2,4.4-2.9,5.4-2.4,11.5-2.4,13.7,0,0,8.3-7.5,17.4,3.4,1.5,1.8-2.6-7,7.2-21.5" style="fill: #999; stroke: #000; stroke-linejoin: round; stroke-width: 5px;"/>
          <path d="M455.1,450.9c-4.9-8.2-12-6.9-12-6.9-17.6,.9-14.9,32.6-14.5,37.1,0,0,7.5-13.2,17.3-1.7,.7,.9-.1-18.9,9.2-28.5Z" style="fill: gray; stroke: #000; stroke-linejoin: round; stroke-width: 5px;"/>
          <g id="_爪" data-name="爪">
            <path d="M410.6,484.2c.4,2.2,3.1,3,4.6,1.4l10.7-13.4c.6-.7,.5-1.8-.1-2.5-7.3-7.6-10-5.8-15.8-2.8s-1,1-.9,1.7l1.6,15.6Z" style="fill: #fff; stroke: #000; stroke-linejoin: round; stroke-width: 5px;"/>
            <path d="M433.8,496.2c.9,2.1,3.7,2.2,4.8,.2l7.3-15.6c.4-.8,.1-1.9-.7-2.4-8.8-5.7-11.1-3.3-16,1-.5,.5-.8,1.2-.5,1.9l5.2,14.8Z" style="fill: #fff; stroke: #000; stroke-linejoin: round; stroke-width: 5px;"/>
            <path d="M456.8,494.4c1.1,2,4,1.8,4.8-.3l5.6-16.3c.3-.9,0-1.9-.9-2.3-9.4-4.7-11.4-2.1-15.8,2.7-.5,.5-.6,1.3-.3,2l6.7,14.1Z" style="fill: #fff; stroke: #000; stroke-linejoin: round; stroke-width: 5px;"/>
          </g>
        </g>
      </g>
    </g>
  </g>
  <circle cx="300" cy="300" r="300" style="fill: none; stroke: #fff; stroke-miterlimit: 10;"/>
</svg>