<?xml version="1.0" encoding="UTF-8"?>
<svg id="_レイヤー_2" data-name="レイヤー 2" xmlns="http://www.w3.org/2000/svg" viewBox="0 0 512 512">
  <circle cx="256" cy="256" r="256" style="fill: #35bacf;"/>
  <circle cx="157.5" cy="169.3" r="44.7" transform="translate(-22.6 314.4) rotate(-85.9)" style="fill: #f2f45b;"/>
  <path d="M202.5,284.9c0,70.9-35.9,102.5-107.1,102.5H48.4c-8.3,0-15.1-6.8-15.1-15.1v-46.1c0-8.3,6.8-15.1,15.1-15.1h36.5c25.6,0,30.5-16,30.5-32.6v-43.4c0-8.3,6.8-15.1,15.1-15.1h57c8.3,0,15.1,6.8,15.1,15.1v49.8Z" style="fill: #fff;"/>
  <path d="M469.4,384.7h-65.2c-5.1,0-9.3-4.2-9.3-9.3V241.2c0-4.1-.1-7.6-.5-10.6-1.4-11.5-18.5-10.4-18.5,1.2v143.7c0,5.1-4.2,9.3-9.3,9.3h-45.6c-5.1,0-9.3-4.2-9.3-9.3V236.9c0-12-17.9-12.6-18.6-.6,0,1.5-.1,3.2-.1,4.9v134.3c0,5.1-4.2,9.3-9.3,9.3h-64.6c-5.1,0-9.3-4.2-9.3-9.3V233.3c0-71.8,30.5-96.2,103.1-96.2h65.4c73.6,0,100.4,21.1,100.4,96.2v142.1c0,5.1-4.2,9.3-9.3,9.3Z" style="fill: #fff;"/>
</svg>